PathFileType	3	(X/Y/Z)	RCH0000002 BBF 05.c3d
DataRate	CameraRate	NumFrames	NumMarkers	Units	OrigDataRate	OrigDataStartFrame	OrigNumFrames
100.0	100.0	12	23	mm	100.0	316	252
Frame#	Time	T2			T10			MAN			LASI			RASI			LPSI			RPSI			LPAT			LKNE			LANK			LMED			LHEE			LTOE			RPAT			RKNE			RANK			RMED			RHEE			RTOE			RTHI			LTHI			RTIB			LTIB			
		X1	Y1	Z1	X2	Y2	Z2	X3	Y3	Z3	X4	Y4	Z4	X5	Y5	Z5	X6	Y6	Z6	X7	Y7	Z7	X8	Y8	Z8	X9	Y9	Z9	X10	Y10	Z10	X11	Y11	Z11	X12	Y12	Z12	X13	Y13	Z13	X14	Y14	Z14	X15	Y15	Z15	X16	Y16	Z16	X17	Y17	Z17	X18	Y18	Z18	X19	Y19	Z19	X20	Y20	Z20	X21	Y21	Z21	X22	Y22	Z22	X23	Y23	Z23	

316	3.150	471.89871	-38.85389	987.09126	488.66927	-41.70655	801.37756	607.77445	-36.29207	965.53169	561.30414	64.82756	661.78374	606.16768	-106.54834	656.03098	467.73904	-16.28194	706.51800	483.78509	-83.71171	702.64399	532.61847	19.13563	378.01363	476.98303	70.83419	345.73425	386.12003	55.66694	83.14049	396.74503	-11.74990	104.46753	354.11812	16.00708	122.77894	435.74918	20.98368	71.87426	717.99327	-58.40390	414.67813	681.64960	-116.13528	375.29774	563.31944	-164.04692	143.73291	548.19288	-95.63005	148.36693	526.08109	-133.45580	183.13583	597.19474	-125.46912	116.62854	660.97327	-183.72296	485.79761	482.89049	142.08988	469.69114	640.22372	-200.51542	288.27994	430.23894	128.47805	232.09786	
317	3.160	483.42458	-38.77622	984.50356	498.60056	-42.10173	798.64668	619.39629	-37.24833	961.75606	571.22827	65.34579	659.38070	616.50716	-106.09616	652.96261	477.33980	-16.65557	703.00448	493.42036	-83.89701	698.42354	539.04066	20.26554	375.10151	482.82248	71.88041	343.92828	386.45207	56.38008	82.90335	397.38505	-10.93588	104.56775	355.16831	16.93446	123.36685	436.05050	21.66767	71.22340	736.71917	-57.96414	418.84231	702.35977	-115.35470	377.55907	597.73105	-163.05145	140.06468	582.20680	-94.66385	143.73307	558.16504	-132.61414	177.23740	632.91814	-124.37022	114.90219	676.73852	-183.22009	487.06735	490.88043	143.02818	467.76477	666.15342	-199.87717	288.54596	433.88199	129.46414	230.91799	
318	3.170	495.10771	-39.01402	981.60516	508.95746	-42.68454	795.66717	631.16238	-38.22690	957.87819	581.76069	65.75743	656.82770	627.20277	-105.78383	649.68433	487.49366	-16.94144	699.42040	503.51881	-84.03890	694.08709	545.88605	21.32020	372.10733	489.11049	72.86660	342.07556	386.98612	57.05424	82.85990	398.22531	-10.17510	104.80299	356.48677	17.80821	124.16301	436.49976	22.30521	70.65085	754.12533	-57.29192	422.01487	721.65424	-114.33673	379.02281	631.34569	-161.65504	135.79660	615.27603	-93.35354	138.56176	589.42450	-131.53138	170.69956	667.64592	-122.76915	112.62218	691.74996	-182.58507	487.44313	499.52114	143.97229	465.71926	691.07089	-198.94295	287.96555	437.81184	130.38519	229.80217	
319	3.180	506.94206	-39.58779	978.44127	519.81225	-43.42230	792.49026	643.07576	-39.25432	954.01199	592.93839	66.07724	654.17544	638.35424	-105.57499	646.27953	498.27814	-17.13754	695.84146	514.18327	-84.13515	689.74579	553.30199	22.30120	369.06904	495.98843	73.76981	340.19552	387.88633	57.72169	83.07543	399.41097	-9.44201	105.21884	358.24192	18.66592	125.23336	437.20911	22.90320	70.17980	770.22593	-56.25880	423.99141	739.52079	-113.01727	379.51860	663.60662	-159.86203	130.96539	646.82342	-91.71028	132.92494	619.36150	-130.22281	163.64223	700.77665	-120.66479	109.78058	706.13097	-181.74677	486.84462	508.83955	144.89215	463.58511	714.81986	-197.64999	286.43640	442.20964	131.24240	228.79127	
320	3.190	518.92170	-40.49668	975.05054	531.22456	-44.27336	789.15889	655.14023	-40.34704	950.25394	604.77035	66.31698	651.45598	650.04052	-105.43452	642.81924	509.73995	-17.25564	692.32370	525.49096	-84.19558	685.49905	561.43290	23.20244	366.00253	503.60420	74.56887	338.28265	389.32653	58.43249	83.58711	401.08174	-8.69138	105.84007	360.60487	19.57446	126.61763	438.29193	23.47841	69.81631	785.08848	-54.75939	424.61970	756.00576	-111.35400	378.92004	693.91617	-157.70608	125.63402	676.26822	-89.76353	126.91256	647.45219	-128.70400	156.21451	731.69940	-118.10478	106.39512	720.03720	-180.64708	485.23562	518.85425	145.75080	461.37780	737.21522	-195.95984	283.92138	447.29094	132.04811	227.89431	
321	3.200	531.04053	-41.71973	971.46909	543.23619	-45.18867	785.71145	667.35912	-41.50947	946.68295	617.23714	66.48471	648.68541	662.31156	-105.33187	639.36605	521.89122	-17.31698	688.90686	537.48619	-84.23818	681.43584	570.39974	24.00969	362.90449	512.08874	75.24468	336.31187	391.47462	59.24330	84.40226	403.36282	-7.86892	106.67011	363.73594	20.61450	128.32576	439.85485	24.05293	69.55124	798.82460	-52.73457	423.82397	771.20209	-109.33870	377.16729	721.68080	-155.25528	119.89664	703.06975	-87.56565	120.63772	673.18623	-126.99723	148.59321	759.83979	-115.18804	102.51934	733.63167	-179.25404	482.63686	529.57005	146.50698	459.10053	758.04821	-193.87081	280.45864	453.27305	132.81959	227.09057	
322	3.210	543.29166	-43.21813	967.73592	555.86619	-46.11368	782.18703	679.73384	-42.73299	943.36242	630.29269	66.58412	645.86903	675.18174	-105.24444	635.97988	534.70850	-17.34671	685.62016	550.17544	-84.28390	677.63751	580.28370	24.70075	359.75928	521.53567	75.77963	334.24778	394.47870	60.20581	85.50102	406.35848	-6.92294	107.69364	367.77286	21.86373	130.33860	441.99201	24.64907	69.36511	811.57563	-50.19025	421.62263	785.23293	-107.00681	374.28342	746.36785	-152.61352	113.88126	726.77408	-85.19532	114.24038	696.11467	-125.14072	140.97914	784.71056	-112.05968	98.24857	747.05862	-177.57339	479.13284	540.97417	147.11775	456.74941	777.10729	-191.42756	276.16133	460.34343	133.57195	226.33754	
323	3.220	555.66651	-44.93795	963.89891	569.10700	-46.99068	778.63132	692.26218	-43.99596	940.34384	643.86787	66.61405	643.00852	688.62618	-105.16058	632.72440	548.13453	-17.36807	682.48957	563.52513	-84.35137	674.18129	591.11670	25.24576	356.54894	531.98836	76.15640	332.05620	398.45661	61.35655	86.84339	410.14878	-5.81498	108.88178	372.82195	23.38107	132.61283	444.78250	25.28465	69.23520	823.49487	-47.20787	418.13599	798.23310	-104.44185	370.38140	767.56646	-149.91661	107.74882	747.05816	-82.75783	107.88737	715.89964	-123.19712	133.58992	805.96078	-108.89834	93.71989	760.42028	-175.65615	474.87193	553.03567	147.54087	454.32006	794.21066	-188.72516	271.20841	468.63514	134.31161	225.58326	
324	3.230	568.15364	-46.81334	960.02031	582.92205	-47.76171	775.10208	704.93654	-45.26474	937.67150	657.87563	66.56840	640.11000	702.58060	-105.08161	629.67250	562.08281	-17.39745	679.54524	577.46297	-84.45229	671.14334	602.88039	25.60732	353.26457	543.43693	76.35651	329.71589	403.49022	62.70929	88.37942	414.78980	-4.52812	110.19934	378.95309	25.19433	135.08957	448.29141	25.96911	69.14390	834.72864	-43.94415	413.58180	810.33088	-101.77360	365.65999	785.04229	-147.32219	101.68709	763.76475	-80.38086	101.76681	732.35761	-121.25803	126.64898	823.41599	-105.89721	89.10456	773.76050	-173.60033	470.05946	565.70898	147.73708	451.81469	809.24259	-185.90577	265.82851	478.21319	135.03138	224.78083	
325	3.240	580.73764	-48.76996	956.18073	597.24554	-48.37189	771.67324	717.74230	-46.49570	935.38719	672.21716	66.43640	637.19188	716.94507	-105.02229	626.90950	576.44449	-17.44116	676.82790	591.88281	-84.58847	668.60060	615.51339	25.74089	349.91741	555.82509	76.35908	327.22836	409.62455	64.25067	90.06100	420.31713	-3.07226	111.61277	386.19886	27.29210	137.70532	452.57400	26.70108	69.08674	845.39908	-40.61921	408.25814	821.63259	-99.16960	360.38858	798.77493	-144.99417	95.89838	776.92201	-78.20520	96.07629	745.48729	-119.44200	120.37031	837.10201	-103.24155	84.59293	787.05801	-171.54560	464.94447	578.94064	147.67226	449.24855	822.18359	-183.14739	260.27842	489.07299	135.70802	223.90246	
326	3.250	593.39813	-50.72856	952.48067	611.98456	-48.77331	768.43653	730.65660	-47.63802	933.53430	686.78852	66.20358	634.29140	731.59177	-105.00960	624.53320	591.09691	-17.49444	674.39283	606.65282	-84.75109	666.63047	628.92500	25.59635	346.54738	569.06472	76.14059	324.62461	416.87125	65.93892	91.85285	426.75213	-1.48610	113.09732	394.55760	29.62041	140.40294	457.68225	27.46738	69.07845	855.59101	-37.49432	402.51519	832.21173	-96.82079	354.88243	808.96821	-143.08404	90.58152	786.74272	-76.37125	91.00577	755.47499	-117.88511	114.94035	847.24619	-101.08642	80.37415	800.23037	-169.66079	459.80145	592.67744	147.31958	446.65492	833.12495	-180.64608	254.81836	501.14916	136.30252	222.95056	
327	3.260	606.10910	-52.60879	949.03894	627.02359	-48.92893	765.50023	743.64756	-48.63711	932.16033	701.48721	65.85334	631.46876	746.37572	-105.07958	622.65037	605.91293	-17.54302	672.31074	621.62615	-84.92228	665.30840	643.01229	25.12179	343.22776	583.05420	75.67598	321.96759	425.21557	67.70544	93.74056	434.11007	0.16390	114.64192	403.99996	32.08380	143.14055	463.67216	28.24346	69.15573	865.34497	-34.84216	396.71956	842.10395	-94.92289	349.47164	816.02835	-141.71240	85.91066	793.60152	-75.00320	86.71801	762.67406	-116.72532	110.49964	854.25357	-99.53890	76.61422	813.14762	-168.12550	454.90853	606.87350	146.66180	444.08827	842.26182	-178.59457	249.68658	514.33099	136.76304	221.96413	
